<svg width="140" height="12" viewBox="0 0 140 12" fill="none" xmlns="http://www.w3.org/2000/svg">
<g clip-path="url(#clip0_1_23052)">
<path d="M0.139575 5.98875C0.139575 2.48544 3.05784 0.09375 7.45261 0.09375C8.94624 0.09896 10.4234 0.396869 11.7953 0.969579L11.1352 2.73808C10.0125 2.23489 8.79353 1.96524 7.55683 1.94646C4.58646 1.94646 3.05784 3.46232 3.05784 5.98875C2.99509 6.48892 3.03968 6.99628 3.1888 7.47895C3.33793 7.96162 3.58837 8.40918 3.9244 8.79353C4.26043 9.17787 4.67479 9.49069 5.14146 9.71235C5.60813 9.934 6.11703 10.0597 6.63619 10.0816C7.47938 10.1072 8.30504 9.8446 8.96871 9.33965C9.63239 8.83469 10.0918 8.11955 10.2667 7.31933H6.96623V5.41609H12.9765V11.6985H11.031V8.85203C10.6767 9.80219 10.0151 10.6158 9.14471 11.1713C8.27437 11.7268 7.24206 11.9944 6.20192 11.9343C5.3986 11.9389 4.60243 11.7877 3.86021 11.4897C3.118 11.1917 2.4447 10.7529 1.8799 10.199C1.3151 9.64504 0.870196 8.98724 0.57133 8.26423C0.272465 7.54121 0.12567 6.76756 0.139575 5.98875Z" fill="#030D0D"/>
<path d="M37.5729 6.86363C37.3615 8.4771 37.4497 10.1142 37.8334 11.6975H35.0541C34.7668 10.3807 34.6617 9.03267 34.7415 7.68893H18.3088V11.6975H15.877V0.294922H32.2053C35.7837 0.294922 37.7292 1.52445 37.7292 3.96666C37.7495 4.6004 37.5597 5.22375 37.1876 5.74517C36.8156 6.26658 36.2809 6.6586 35.6621 6.86363H37.5729ZM18.3088 2.09711V5.85306H31.9622C34.0814 5.85306 35.141 5.31409 35.141 3.93298C35.141 2.55186 34.1682 2.06342 32.0316 2.06342L18.3088 2.09711Z" fill="#030D0D"/>
<path d="M40.2129 5.98849C40.2129 2.41781 43.1138 0.0429688 47.3001 0.0429688C51.4864 0.0429688 54.4047 2.48518 54.4047 5.98849C54.4047 9.49181 51.4691 11.934 47.3001 11.934C43.1312 11.934 40.2129 9.55918 40.2129 5.98849ZM51.7817 5.98849C51.7924 5.42928 51.6803 4.87425 51.4527 4.36032C51.2251 3.84638 50.8873 3.38529 50.4617 3.00771C50.0362 2.63013 49.5326 2.3447 48.9845 2.17039C48.4364 1.99608 47.8563 1.93689 47.2827 1.99674C46.7185 1.96122 46.1526 2.03832 45.6203 2.22327C45.088 2.40822 44.6005 2.6971 44.1879 3.07203C43.7753 3.44696 43.4464 3.89998 43.2215 4.40307C42.9967 4.90616 42.8807 5.44862 42.8807 5.99692C42.8807 6.54521 42.9967 7.08767 43.2215 7.59076C43.4464 8.09385 43.7753 8.54687 44.1879 8.9218C44.6005 9.29673 45.088 9.58561 45.6203 9.77056C46.1526 9.95552 46.7185 10.0326 47.2827 9.99709C47.8577 10.0572 48.4394 9.99754 48.9887 9.82224C49.5381 9.64694 50.0425 9.36 50.4684 8.98057C50.8942 8.60114 51.2316 8.13797 51.4581 7.62199C51.6846 7.10601 51.7949 6.54911 51.7817 5.98849Z" fill="#030D0D"/>
<path d="M58.3823 0.294922L61.8564 8.96899L65.3306 0.294922H67.7451L71.2192 8.86794L72.3309 5.49936H74.8323L72.8868 11.7312H69.6211L66.5986 3.49507L63.524 11.6975H60.2062L55.7246 0.294922H58.3823Z" fill="#030D0D"/>
<path d="M74.0507 0.294922H89.389L88.451 2.26554H82.3191V11.6975H79.8178V2.26554H73.3906L74.0507 0.294922Z" fill="#030D0D"/>
<path d="M95.4698 0.294922L100.889 11.6975H98.1622L97.0505 9.22164H90.7971L89.5985 11.7312H86.8887L92.3083 0.294922H95.4698ZM96.3209 7.38576L93.9411 1.84446L91.5093 7.38576H96.3209Z" fill="#030D0D"/>
<path d="M103.652 9.03705C105.011 9.70236 106.508 10.0594 108.029 10.0813C109.975 10.0813 111.017 9.50865 111.017 8.71704C111.017 6.56115 103.253 7.03275 103.253 3.19258C103.253 1.28934 105.198 0.0429688 108.325 0.0429688C110.02 0.045128 111.698 0.377322 113.258 1.01985L112.563 2.87257C111.234 2.29892 109.797 1.99513 108.342 1.9799C106.605 1.9799 105.91 2.40097 105.91 3.1589C105.91 5.41584 113.64 5.1632 113.64 8.81809C113.64 10.6708 111.59 11.9845 108.064 11.9845C106.307 11.986 104.571 11.6182 102.975 10.9066L103.652 9.03705Z" fill="#030D0D"/>
<path d="M119.025 0.294922V5.09513H130.924L136.239 0.294922H139.487L133.807 5.34778L139.974 11.647H136.83L132.157 6.84679H119.042V11.6638H116.523V0.294922H119.025Z" fill="#030D0D"/>
<path d="M47.3001 7.37059C48.1443 7.37059 48.8287 6.707 48.8287 5.88842C48.8287 5.06984 48.1443 4.40625 47.3001 4.40625C46.4559 4.40625 45.7715 5.06984 45.7715 5.88842C45.7715 6.707 46.4559 7.37059 47.3001 7.37059Z" fill="#030D0D"/>
</g>
<defs>
<clipPath id="clip0_1_23052">
<rect width="140" height="12" fill="white"/>
</clipPath>
</defs>
</svg>
