<svg xmlns="http://www.w3.org/2000/svg" width="34" height="34" viewBox="0 0 34 34" fill="none">
<g clip-path="url(#clip0_2140_1825)">
<path fill-rule="evenodd" clip-rule="evenodd" d="M7.5148 17C7.5148 16.4477 7.96251 16 8.5148 16L16.0001 16L16.0001 8.51472C16.0001 7.96243 16.4478 7.51472 17.0001 7.51472C17.5524 7.51472 18.0001 7.96243 18.0001 8.51472L18.0001 16H25.4854C26.0376 16 26.4854 16.4477 26.4854 17C26.4854 17.5523 26.0376 18 25.4854 18H18.0001L18.0001 25.4853C18.0001 26.0376 17.5524 26.4853 17.0001 26.4853C16.4478 26.4853 16.0001 26.0376 16.0001 25.4853L16.0001 18L8.5148 18C7.96251 18 7.5148 17.5523 7.5148 17Z" fill="white"/>
</g>
<defs>
<clipPath id="clip0_2140_1825">
<rect width="24" height="24" fill="white" transform="translate(0.0292969 17) rotate(-45)"/>
</clipPath>
</defs>
</svg>